<?xml version="1.0" encoding="iso-8859-1"?>
<!-- Generator: Adobe Illustrator 19.0.0, SVG Export Plug-In . SVG Version: 6.00 Build 0)  -->
<svg version="1.1" id="Layer_1" xmlns="http://www.w3.org/2000/svg" xmlns:xlink="http://www.w3.org/1999/xlink" x="0px" y="0px"
	 viewBox="0 0 512 512" style="enable-background:new 0 0 512 512;" xml:space="preserve">
<path style="fill:#F4C064;" d="M374.568,234.442c0,23.812-19.304,43.116-43.116,43.116c-23.812,0-43.116-19.304-43.116-43.116
	s19.304-43.116,43.116-43.116C355.264,191.326,374.568,210.63,374.568,234.442z"/>
<path style="fill:#F4AB53;" d="M288.337,234.442h86.232c0,23.812-19.304,43.116-43.116,43.116
	C307.641,277.558,288.337,258.254,288.337,234.442z"/>
<path style="fill:#CEA05D;" d="M105.095,406.905h64.674v75.453c0,11.906-9.651,21.558-21.558,21.558h-21.558
	c-11.906,0-21.558-9.651-21.558-21.558V406.905z M363.789,406.905v75.453c0,11.906,9.651,21.558,21.558,21.558h21.558
	c11.906,0,21.558-9.651,21.558-21.558v-75.453H363.789z"/>
<path style="fill:#99774F;" d="M105.095,417.684h64.674v53.895h-64.674V417.684z M363.789,417.684v53.895h64.674v-53.895H363.789z"
	/>
<path style="fill:#B5E1F4;" d="M460.8,331.453h21.558c11.906,0,21.558,9.651,21.558,21.558v64.674
	c0,11.906-9.651,21.558-21.558,21.558H51.2c-11.906,0-21.558-9.651-21.558-21.558V353.01c0-11.906,9.651-21.558,21.558-21.558
	h269.474v-53.895c0-23.812,19.304-43.116,43.116-43.116H460.8c23.812,0,43.116,19.304,43.116,43.116v10.779
	C503.916,312.149,484.612,331.453,460.8,331.453z"/>
<path style="fill:#D7F3FF;" d="M503.916,353.01v21.558H29.642V353.01c0-11.906,9.651-21.558,21.558-21.558h269.474v-43.116h183.242
	c0,23.812-19.304,43.116-43.116,43.116h21.558C494.264,331.453,503.916,341.104,503.916,353.01z"/>
<path style="fill:#A2CCDB;" d="M503.916,277.558v10.779c0,23.812-19.304,43.116-43.116,43.116H320.674v-53.895
	c0-23.812,19.304-43.116,43.116-43.116H460.8C484.612,234.442,503.916,253.746,503.916,277.558z"/>
<path style="fill:#90B5BF;" d="M320.674,288.337h183.242c0,23.812-19.304,43.116-43.116,43.116H320.674V288.337z"/>
<path style="fill:#8E5B8E;" d="M342.232,288.337v75.453c0,11.906-9.651,21.558-21.558,21.558H29.642
	c-11.906,0-21.558-9.651-21.558-21.558v-75.453c0-11.906,9.651-21.558,21.558-21.558h291.032
	C332.58,266.779,342.232,276.43,342.232,288.337z"/>
<path style="fill:#AF7AAE;" d="M342.232,288.337v75.453c0,11.906-9.651,21.558-21.558,21.558h-75.453V266.779h75.453
	C332.58,266.779,342.232,276.43,342.232,288.337z"/>
<path style="fill:#90B5BF;" d="M218.274,169.768h-43.116c-44.647,0-80.842-36.195-80.842-80.842l0,0
	c0-44.647,36.195-80.842,80.842-80.842h43.116c44.647,0,80.842,36.195,80.842,80.842l0,0
	C299.116,133.574,262.921,169.768,218.274,169.768z"/>
<path style="fill:#B5E1F4;" d="M299.116,153.6c0,14.883-12.065,26.947-26.947,26.947c-14.882,0-26.947-12.065-26.947-26.947
	c0-14.882,12.065-26.947,26.947-26.947C287.051,126.653,299.116,138.717,299.116,153.6z"/>
<path style="fill:#FFE77C;" d="M212.884,129.258c-7.708,5.16-16.975,8.174-26.947,8.174c-26.789,0-48.505-21.716-48.505-48.505
	s21.716-48.505,48.505-48.505c9.973,0,19.239,3.013,26.947,8.174c-12.998,8.702-21.558,23.515-21.558,40.332
	S199.886,120.556,212.884,129.258z"/>
<path d="M86.232,88.926c0-14.453,3.548-28.806,10.262-41.504c2.088-3.947,6.979-5.458,10.926-3.368
	c3.947,2.087,5.456,6.978,3.369,10.924C105.3,65.357,102.4,77.096,102.4,88.926c0,40.119,32.639,72.758,72.758,72.758h43.116
	c4.466,0,8.084,3.62,8.084,8.084c0,4.465-3.618,8.084-8.084,8.084h-43.116C126.124,177.853,86.232,137.961,86.232,88.926z
	 M125.693,35.569c13.489-12.511,31.055-19.401,49.465-19.401h43.116c40.119,0,72.758,32.639,72.758,72.758
	c0,4.902-0.489,9.801-1.456,14.561c-0.887,4.375,1.94,8.643,6.315,9.53c0.542,0.11,1.083,0.163,1.616,0.163
	c3.765,0,7.137-2.645,7.915-6.478c1.18-5.815,1.779-11.795,1.779-17.776C307.2,39.892,267.307,0,218.274,0h-43.116
	c-22.5,0-43.972,8.422-60.46,23.714c-3.272,3.036-3.465,8.152-0.429,11.425C117.304,38.413,122.419,38.606,125.693,35.569z
	 M495.149,326.273c9.959,4.783,16.851,14.97,16.851,26.737v64.674c0,16.345-13.298,29.642-29.642,29.642h-45.811v35.032
	c0,4.848-1.171,9.429-3.243,13.474h70.612c4.466,0,8.084,3.62,8.084,8.084S508.382,512,503.916,512H331.453
	c-4.466,0-8.084-3.62-8.084-8.084s3.618-8.084,8.084-8.084h27.496c-2.073-4.044-3.243-8.625-3.243-13.474v-35.032H177.853v35.032
	c0,4.848-1.171,9.429-3.243,13.474h124.507c4.466,0,8.084,3.62,8.084,8.084S303.582,512,299.116,512H8.084
	C3.618,512,0,508.38,0,503.916s3.618-8.084,8.084-8.084h92.17c-2.073-4.044-3.243-8.625-3.243-13.474v-35.032H51.2
	c-16.344,0-29.642-13.297-29.642-29.642c0-4.465,3.618-8.084,8.084-8.084s8.084,3.62,8.084,8.084c0,7.43,6.044,13.474,13.474,13.474
	h75.453c4.466,0,8.084,3.62,8.084,8.084c0,4.465-3.618,8.084-8.084,8.084h-13.474v35.032c0,7.43,6.044,13.474,13.474,13.474h21.558
	c7.43,0,13.474-6.044,13.474-13.474v-35.032h-2.695c-4.466,0-8.084-3.62-8.084-8.084c0-4.465,3.618-8.084,8.084-8.084h226.358
	c4.466,0,8.084,3.62,8.084,8.084c0,4.465-3.618,8.084-8.084,8.084h-13.474v35.032c0,7.43,6.044,13.474,13.474,13.474h21.558
	c7.43,0,13.474-6.044,13.474-13.474v-35.032h-2.695c-4.466,0-8.084-3.62-8.084-8.084c0-4.465,3.618-8.084,8.084-8.084h64.674
	c7.43,0,13.474-6.044,13.474-13.474v-35.032H385.347c-4.466,0-8.084-3.62-8.084-8.084c0-4.465,3.618-8.084,8.084-8.084h110.484
	V353.01c0-7.43-6.044-13.474-13.474-13.474h-32.337c-4.466,0-8.084-3.62-8.084-8.084c0-4.465,3.618-8.084,8.084-8.084H460.8
	c19.317,0,35.032-15.716,35.032-35.032v-10.779c0-19.316-15.715-35.032-35.032-35.032h-97.011c-13.248,0-25.094,7.411-31.035,18.744
	c10.341,4.633,17.561,15.022,17.561,27.067v35.032h67.368c4.466,0,8.084,3.62,8.084,8.084c0,4.465-3.618,8.084-8.084,8.084h-67.368
	v24.253c0,16.345-13.298,29.642-29.642,29.642H29.642C13.298,393.432,0,380.135,0,363.789v-75.453
	c0-16.345,13.298-29.642,29.642-29.642h256.723c-3.969-7.378-6.113-15.698-6.113-24.253c0-28.231,22.969-51.2,51.2-51.2
	c25.483,0,46.676,18.711,50.562,43.116H460.8c28.231,0,51.2,22.969,51.2,51.2v10.779C512,303.363,505.493,316.899,495.149,326.273z
	 M320.674,274.863h-17.577c-0.11,0.002-0.219,0.002-0.329,0H29.642c-7.43,0-13.474,6.044-13.474,13.474v75.453
	c0,7.43,6.044,13.474,13.474,13.474h207.495v-78.147c0-4.465,3.618-8.084,8.084-8.084c4.466,0,8.084,3.62,8.084,8.084v78.147h67.368
	c7.43,0,13.474-6.044,13.474-13.474v-75.453C334.147,280.907,328.104,274.863,320.674,274.863z M365.543,226.358
	c-3.659-15.432-17.556-26.947-34.091-26.947c-19.317,0-35.032,15.716-35.032,35.032c0,9.068,3.524,17.754,9.754,24.253h9.999
	c7.632-19.32,26.393-32.337,47.616-32.337H365.543z M307.2,153.6c0,19.316-15.715,35.032-35.032,35.032
	c-19.317,0-35.032-15.716-35.032-35.032s15.715-35.032,35.032-35.032C291.485,118.568,307.2,134.284,307.2,153.6z M291.032,153.6
	c0-10.401-8.463-18.863-18.863-18.863c-10.401,0-18.863,8.463-18.863,18.863s8.463,18.863,18.863,18.863
	S291.032,164.001,291.032,153.6z M199.411,88.926c0,13.515,6.717,26.081,17.972,33.614c2.241,1.502,3.586,4.021,3.586,6.719
	c0,2.697-1.345,5.217-3.587,6.717c-9.323,6.241-20.195,9.539-31.444,9.539c-31.203,0-56.589-25.385-56.589-56.589
	s25.387-56.589,56.589-56.589c11.249,0,22.122,3.299,31.444,9.54c2.242,1.5,3.587,4.021,3.587,6.717s-1.345,5.217-3.587,6.717
	C206.128,62.846,199.411,75.412,199.411,88.926z M183.242,88.926c0-14.453,5.486-28.131,15.096-38.482
	c-3.975-1.281-8.15-1.939-12.401-1.939c-22.289,0-40.421,18.132-40.421,40.421s18.132,40.421,40.421,40.421
	c4.251,0,8.426-0.659,12.401-1.939C188.729,117.057,183.242,103.38,183.242,88.926z"/>
<g>
</g>
<g>
</g>
<g>
</g>
<g>
</g>
<g>
</g>
<g>
</g>
<g>
</g>
<g>
</g>
<g>
</g>
<g>
</g>
<g>
</g>
<g>
</g>
<g>
</g>
<g>
</g>
<g>
</g>
</svg>
