<?xml version="1.0" encoding="iso-8859-1"?>
<!-- Generator: Adobe Illustrator 19.0.0, SVG Export Plug-In . SVG Version: 6.00 Build 0)  -->
<svg version="1.1" id="Layer_1" xmlns="http://www.w3.org/2000/svg" xmlns:xlink="http://www.w3.org/1999/xlink" x="0px" y="0px"
	 viewBox="0 0 508 508" style="enable-background:new 0 0 508 508;" xml:space="preserve">
<path style="fill:#AEB1B4;" d="M192,153.6h131.6c-0.8-12-10-20-22-20h-88C202,133.6,192.8,141.6,192,153.6z"/>
<path style="fill:#7C5135;" d="M456,157.6h-2H52c-25.2,0-46,19.6-46,45.2v252c0,25.2,20.8,46.8,46,46.8h404c25.2,0,46-21.6,46-46.8
	v-250v-2C502,177.2,481.2,157.6,456,157.6z M390,440.4c0,7.6-4.4,17.2-12,17.2H64c-8,0-14-9.6-14-17.2v-224
	c0-7.6,4.4-10.8,12.4-10.8H378c7.6,0,12,3.2,12,10.8V440.4z M446,454.4c-18.8,0-34-15.2-34-34s15.2-34,34-34s34,15.2,34,34
	C480,439.2,464.8,454.4,446,454.4z M446,370.4c-18.8,0-34-15.2-34-34s15.2-34,34-34s34,15.2,34,34C480,355.2,464.8,370.4,446,370.4z
	"/>
<path style="fill:#CDEEF9;" d="M378,457.6c5.6,0,4-12,4-17.2v-228c0-5.6,1.6-2.8-4-6.8H62.4c-5.6,4-12.4,1.6-12.4,6.8v228
	c0,5.6,8.4,17.2,14,17.2H378z"/>
<g>
	<path style="fill:#F0C960;" d="M446,390.4c-16.4,0-30,13.6-30,30s13.6,30,30,30c16.4,0,30-13.6,30-30S462.4,390.4,446,390.4z
		 M457.6,412l-20,20c-0.4,0.4-0.8,0.4-1.6,0.4c-0.4,0-1.2,0-1.6-0.4c-0.8-0.8-0.8-2,0-2.8l20-20c0.8-0.8,2-0.8,2.8,0
		S458,411.2,457.6,412z"/>
	<path style="fill:#F0C960;" d="M446,306.4c-16.4,0-30,13.6-30,30s13.6,30,30,30c16.4,0,30-13.6,30-30S462.4,306.4,446,306.4z
		 M457.6,348c-0.4,0.4-0.8,0.4-1.6,0.4c-0.4,0-1.2,0-1.6-0.4l-20-20c-0.8-0.8-0.8-2,0-2.8s2-0.8,2.8,0l20,20
		C458,346,458,347.2,457.6,348z"/>
</g>
<g>
	<circle style="fill:#646464;" cx="138" cy="8.4" r="2"/>
	<circle style="fill:#646464;" cx="378" cy="8.4" r="2"/>
</g>
<path d="M184.8,267.2c-1.2,0-2-0.4-2.8-1.2l-58.8-58.8c-1.6-1.6-1.6-4,0-5.6s4-1.6,5.6,0l58.8,58.8c1.6,1.6,1.6,4,0,5.6
	C186.8,266.8,185.6,267.2,184.8,267.2z"/>
<path d="M244.8,327.2c-1.2,0-2-0.4-2.8-1.2l-40-40c-1.6-1.6-1.6-4,0-5.6s4-1.6,5.6,0l40,40c1.6,1.6,1.6,4,0,5.6
	C246.8,326.8,245.6,327.2,244.8,327.2z"/>
<path d="M280.8,403.2c-1.2,0-2-0.4-2.8-1.2L161.6,289.6c-1.6-1.6-1.6-4,0-5.6s4-1.6,5.6,0l116.4,112.4c1.6,1.6,1.6,4,0,5.6
	C283.2,402.8,282,403.2,280.8,403.2z"/>
<path d="M334.4,456.8c-1.2,0-2-0.4-2.8-1.2l-36.8-36.8c-1.6-1.6-1.6-4,0-5.6s4-1.6,5.6,0l36.8,36.8c1.6,1.6,1.6,4,0,5.6
	C336.4,456.4,335.2,456.8,334.4,456.8z"/>
<path d="M456,507.6H52c-28.8,0-52-23.2-52-52v-252c0-28.8,23.2-52,52-52h404c28.8,0,52,23.2,52,52v252
	C508,484.4,484.8,507.6,456,507.6z M52,159.6c-24.4,0-44,19.6-44,44v252c0,24.4,19.6,44,44,44h404c24.4,0,44-19.6,44-44v-252
	c0-24.4-19.6-44-44-44H52z"/>
<path d="M378,459.6H66c-9.2,0-18-10.8-18-19.2v-228c0-8,7.2-12.8,18-12.8h268c2.4,0,4,1.6,4,4s-1.6,4-4,4H66c-0.4,0-10,0-10,4.8v228
	c0,4.8,5.6,11.2,10,11.2h312c3.6,0,6-6.4,6-11.2v-228c0-3.6-0.4-4.8-6-4.8h-12c-2.4,0-4-1.6-4-4s1.6-4,4-4h12c11.6,0,14,7.2,14,12.8
	v228C392,450,386.8,459.6,378,459.6z"/>
<path d="M446,456.4c-20,0-36-16-36-36s16-36,36-36s36,16,36,36S466,456.4,446,456.4z M446,392.4c-15.6,0-28,12.4-28,28
	s12.4,28,28,28s28-12.4,28-28S461.6,392.4,446,392.4z"/>
<path d="M436,434.4c-1.2,0-2-0.4-2.8-1.2c-1.6-1.6-1.6-4,0-5.6l20-20c1.6-1.6,4-1.6,5.6,0s1.6,4,0,5.6l-20,20
	C438,434,437.2,434.4,436,434.4z"/>
<path d="M446,372.4c-20,0-36-16-36-36s16-36,36-36s36,16,36,36S466,372.4,446,372.4z M446,308.4c-15.6,0-28,12.4-28,28
	s12.4,28,28,28s28-12.4,28-28S461.6,308.4,446,308.4z"/>
<path d="M456,350.4c-1.2,0-2-0.4-2.8-1.2l-20-20c-1.6-1.6-1.6-4,0-5.6s4-1.6,5.6,0l20,20c1.6,1.6,1.6,4,0,5.6
	C458,350,457.2,350.4,456,350.4z"/>
<path d="M474,287.6h-56c-2.4,0-4-1.6-4-4s1.6-4,4-4h56c2.4,0,4,1.6,4,4S476.4,287.6,474,287.6z"/>
<path d="M474,267.6h-56c-2.4,0-4-1.6-4-4s1.6-4,4-4h56c2.4,0,4,1.6,4,4S476.4,267.6,474,267.6z"/>
<path d="M474,247.6h-56c-2.4,0-4-1.6-4-4s1.6-4,4-4h56c2.4,0,4,1.6,4,4S476.4,247.6,474,247.6z"/>
<path d="M474,227.6h-56c-2.4,0-4-1.6-4-4s1.6-4,4-4h56c2.4,0,4,1.6,4,4S476.4,227.6,474,227.6z"/>
<path d="M474,207.6h-56c-2.4,0-4-1.6-4-4s1.6-4,4-4h56c2.4,0,4,1.6,4,4S476.4,207.6,474,207.6z"/>
<path d="M326,158.8c-2.4,0-4-1.6-4-4c0-10.8-8.8-19.2-20-19.2h-88c-11.6,0-20,8-20,18.4c0,2.4-1.6,4-4,4s-4-1.6-4-4
	c0-15.2,12-26.4,28-26.4h88c15.6,0,28,12,28,27.2C330,157.2,328.4,158.8,326,158.8z"/>
<path d="M258,132.4c-1.2,0-2-0.4-2.8-1.2l-116-116c-1.6-1.6-1.6-4,0-5.6s4-1.6,5.6,0l116,116c1.6,1.6,1.6,4,0,5.6
	C260,132,259.2,132.4,258,132.4z"/>
<circle cx="138" cy="8.4" r="8"/>
<path d="M258,132.4c-1.2,0-2-0.4-2.8-1.2c-1.6-1.6-1.6-4,0-5.6l116-116c1.6-1.6,4-1.6,5.6,0s1.6,4,0,5.6l-116,116
	C260,132,259.2,132.4,258,132.4z"/>
<circle cx="378" cy="8.4" r="8"/>
<g>
</g>
<g>
</g>
<g>
</g>
<g>
</g>
<g>
</g>
<g>
</g>
<g>
</g>
<g>
</g>
<g>
</g>
<g>
</g>
<g>
</g>
<g>
</g>
<g>
</g>
<g>
</g>
<g>
</g>
</svg>
